<svg width="48" height="48" viewBox="0 0 48 48" fill="none" xmlns="http://www.w3.org/2000/svg">
<path d="M36.251 24.272C36.251 23.2648 36.1676 22.5298 35.9871 21.7676H24.251V26.3136H31.1398C31.001 27.4434 30.251 29.1448 28.5843 30.2881L28.5609 30.4403L32.2716 33.2574L32.5287 33.2826C34.8898 31.1456 36.251 28.0014 36.251 24.272Z" fill="#4285F4"/>
<path d="M24.2506 36.2492C27.6256 36.2492 30.4589 35.1602 32.5284 33.2819L28.5839 30.2874C27.5284 31.0088 26.1117 31.5124 24.2506 31.5124C20.9451 31.5124 18.1396 29.3755 17.1395 26.4219L16.9929 26.4341L13.1344 29.3605L13.084 29.498C15.1395 33.4996 19.3617 36.2492 24.2506 36.2492Z" fill="#34A853"/>
<path d="M17.1403 26.4227C16.8764 25.6605 16.7237 24.8438 16.7237 23.9999C16.7237 23.156 16.8764 22.3394 17.1264 21.5771L17.1194 21.4148L13.2126 18.4414L13.0848 18.501C12.2376 20.1616 11.7515 22.0263 11.7515 23.9999C11.7515 25.9735 12.2376 27.8382 13.0848 29.4988L17.1403 26.4227Z" fill="#FBBC05"/>
<path d="M24.2507 16.4866C26.5979 16.4866 28.1812 17.4802 29.084 18.3106L32.6118 14.935C30.4452 12.9614 27.6257 11.75 24.2507 11.75C19.3618 11.75 15.1395 14.4994 13.084 18.5011L17.1256 21.5772C18.1396 18.6236 20.9452 16.4866 24.2507 16.4866Z" fill="#EB4335"/>
</svg>
