<svg width="137" height="54" viewBox="0 0 137 54" fill="none" xmlns="http://www.w3.org/2000/svg">
<path d="M92.2829 36.0555C87.3683 36.0555 75.9898 35.9486 70.0602 34.987C67.6563 34.5597 66.6413 33.8118 66.6413 31.5147C66.6413 28.7369 66.6413 23.8223 66.5344 22.006C66.3742 18.7473 67.1755 17.4118 69.7396 17.4118C73.5859 17.5187 78.7142 17.4118 82.3468 17.1982C83.7891 17.1447 84.2165 16.6105 84.2165 15.1148C84.2165 13.993 83.6289 13.4588 82.4002 13.4588C79.195 13.4588 73.2119 13.619 69.6862 13.619C67.0686 13.619 65.3592 12.4438 65.3592 9.18515C65.3592 5.39232 66.2139 4.75128 69.5794 4.75128C72.4641 4.75128 77.4321 5.92652 88.864 5.92652C93.0308 5.92652 94.3663 6.30046 94.9539 9.98645C95.0608 10.7877 95.3279 13.4588 95.595 16.0763C96.7168 16.1298 98.8536 16.1832 101.204 16.2366C101.044 13.619 100.83 11.2685 100.616 9.71935C100.243 6.4073 100.777 5.606 103.287 5.12522C104.676 4.85812 107.614 4.5376 108.576 4.5376C111.033 4.5376 112.422 5.65942 112.903 8.5441C113.811 14.3669 114.132 22.7539 114.132 29.2177C114.132 32.6366 113.758 34.1857 111.194 35.0939C110.339 35.361 107.187 35.9486 105.958 35.9486C102.433 35.9486 101.899 35.0939 101.899 31.1408C101.899 29.3245 101.792 27.0275 101.685 24.5701C99.281 24.5167 96.9839 24.4633 95.7018 24.3565C95.1676 24.303 94.6868 24.2496 94.3129 24.1962C93.7787 24.3565 93.1376 24.4633 92.3363 24.4099L79.3553 23.9825C77.9663 23.9291 77.3787 24.303 77.3787 25.7454C77.3787 26.7069 77.7527 27.8288 78.6074 27.8822C80.2634 28.0959 89.5585 28.363 92.9774 28.363C96.3963 28.363 97.5715 29.6985 97.5715 31.675C97.5715 34.987 96.1826 36.0555 92.2829 36.0555ZM65.3592 47.6476C65.3592 46.2053 65.7866 43.2672 66.0537 40.8098C66.3742 37.7649 67.8699 37.3375 70.4341 37.3375C71.5025 37.3375 73.479 37.4444 75.0816 37.7649C77.7527 38.2991 78.3403 39.5812 77.4321 42.733L77.0048 44.1219C76.7377 45.03 78.2869 45.7245 81.1181 45.7245C88.3298 45.7245 93.6718 44.0685 97.892 41.5577C101.151 39.688 104.142 38.7265 107.561 38.7265C111.514 38.7265 113.758 40.703 113.758 43.5877C113.758 49.5173 102.967 53.5238 88.6504 53.5238C81.7592 53.5238 74.2803 53.043 70.1136 52.3486C66.5879 51.761 65.3592 50.5323 65.3592 47.6476Z" fill="#33D878"/>
<path d="M36.0426 23.1783C46.0321 23.1783 48.7566 21.5223 48.7566 20.3471C48.7566 19.7595 48.2758 19.439 47.5813 19.439C46.2458 19.439 41.4914 20.1335 35.5618 20.1335C31.0211 20.1335 27.4954 19.8664 25.7325 19.6527C24.6107 19.4924 24.0765 19.8129 24.0765 20.454C24.0765 21.736 25.8394 23.1783 36.0426 23.1783ZM11.5228 7.52666C11.5228 4.96256 13.3925 3.5747 16.5443 4.00205C20.5228 5.50201 26.8764 0.0488693 35.5618 0.000488281C44.2472 -0.0478927 46.7704 4.91259 54.4191 4.00205C57.8914 3.52129 60.4556 5.50201 60.4556 7.52666C60.4556 9.55131 60.4556 12.0828 53.5228 12.5711C43.1356 13.3027 42.3462 7.52666 35.5618 7.52666C29.3651 7.52666 27.3209 13.8201 17.0785 12.5711C12.698 12.0369 11.5228 9.50315 11.5228 7.52666ZM11.7899 48.7658C11.7899 47.3235 12.2706 44.3855 12.5377 42.3022C12.9651 39.2039 14.5677 38.8834 17.0785 39.3642C19.1618 39.7915 27.1749 40.3791 35.8289 40.3791C43.8419 40.3791 53.7781 39.2573 56.6627 38.6697C58.3722 38.2958 59.3337 39.0437 59.3337 40.0586C59.3337 40.2723 59.2803 40.5394 59.2269 40.8065L58.6927 47.2701C58.4256 50.6355 49.451 53.5735 35.1344 53.5735C28.2433 53.5735 20.711 53.0928 16.5443 52.3983C13.0185 51.8107 11.7899 50.6889 11.7899 48.7658ZM12.3775 20.1335C12.3775 16.0202 15.1553 14.1506 19.8029 14.1506C22.0999 14.1506 23.8628 14.5779 36.9507 14.5779C42.3996 14.5779 50.4126 13.9369 54.4191 13.563C59.1735 13.1356 60.9364 15.4326 60.9364 19.2253C60.9364 24.8877 56.2354 28.4133 41.8654 29.1078C41.9188 29.3215 41.9722 29.642 42.0256 29.9091C42.0791 30.3898 42.1325 30.924 42.2393 31.565C47.7416 31.3514 53.3507 30.8706 55.7012 30.6035C59.1735 30.1227 60.4556 30.4432 60.4556 33.0608C60.4556 35.4112 59.3337 36.2125 49.7716 37.1206C45.2308 37.5479 39.6217 37.8684 32.8374 37.8684C26.6406 37.8684 20.5508 37.4411 17.2921 37.0137C12.9651 36.4796 12.4843 35.3043 12.4843 33.3279C12.4843 30.7638 13.6061 30.283 16.7045 30.7103C19.1084 31.0843 23.8094 31.4582 29.7924 31.6185L29.739 30.7638C29.6322 30.1227 29.6322 29.5351 29.6856 29.0544C15.2622 28.3065 12.3775 24.8343 12.3775 20.1335ZM23.4354 46.7359C23.4354 47.7509 25.1983 48.3919 34.8673 48.3919C40.1559 48.3919 44.5898 48.0714 48.1155 47.6975L48.5429 45.4005C45.124 45.721 40.5299 45.8812 34.44 45.8812C28.9911 45.8812 25.038 45.6676 23.7025 45.4005L23.4354 46.7359Z" fill="#33D878"/>
<path d="M131.986 27.2437C134.295 27.0947 136.288 28.8457 136.437 31.1548C136.586 33.4639 134.835 35.456 132.526 35.605L120.727 36.3668C118.418 36.5156 116.426 34.7647 116.277 32.4556C116.128 30.1466 117.879 28.1535 120.188 28.0045L131.986 27.2437Z" fill="#33D878"/>
<path d="M132.293 39.809C134.604 39.9207 136.387 41.8844 136.275 44.1956C136.164 46.5069 134.2 48.2896 131.889 48.1782L111.321 47.185C109.009 47.0734 107.227 45.1096 107.338 42.7983C107.45 40.4871 109.414 38.7042 111.725 38.8158L132.293 39.809Z" fill="#33D878"/>
</svg>
