<svg width="48" height="48" viewBox="0 0 48 48" fill="none" xmlns="http://www.w3.org/2000/svg">
<path d="M24.1352 11C15.7568 11 9 16.4054 9 22.9676C9 27.227 11.8108 30.9568 16.0271 33.0865L14.6 38.4163C14.5731 38.4962 14.569 38.5819 14.5881 38.664C14.6072 38.7461 14.6487 38.8213 14.7081 38.8811C14.7947 38.9575 14.9062 38.9997 15.0216 39C15.1174 38.9923 15.2082 38.9545 15.2811 38.8919L21.4217 34.7514C22.3281 34.8765 23.2418 34.9415 24.1568 34.9459C32.5244 34.9459 39.292 29.5406 39.292 22.9676C39.292 16.3946 32.5028 11 24.1352 11Z" fill="#392020"/>
<path d="M14.607 20.918H13.1072C12.9213 20.9234 12.7377 20.8758 12.5779 20.7807C12.5069 20.7363 12.4459 20.6776 12.3986 20.6084C12.3514 20.5393 12.319 20.4611 12.3034 20.3788C12.2986 20.3266 12.2986 20.2742 12.3034 20.222C12.2987 20.1244 12.3177 20.027 12.3586 19.9383C12.3996 19.8496 12.4613 19.7721 12.5386 19.7123C12.7095 19.5885 12.9158 19.5231 13.1268 19.526H17.6458C17.8332 19.5194 18.0181 19.5707 18.1752 19.673C18.2478 19.7155 18.3101 19.7737 18.3576 19.8432C18.4051 19.9127 18.4365 19.9918 18.4497 20.075C18.4544 20.1239 18.4544 20.1731 18.4497 20.222C18.4543 20.3211 18.4354 20.4197 18.3945 20.5101C18.3536 20.6004 18.2919 20.6796 18.2144 20.7415C18.0477 20.8651 17.8434 20.9275 17.636 20.918H16.1852V26.0742C16.1911 26.1841 16.1741 26.2939 16.1353 26.3968C16.0965 26.4997 16.0367 26.5935 15.9598 26.6722C15.886 26.7473 15.7973 26.8062 15.6994 26.8451C15.6014 26.8839 15.4965 26.9018 15.3912 26.8976C15.2071 26.9028 15.0269 26.844 14.8815 26.731C14.743 26.6207 14.649 26.464 14.6168 26.2898C14.6071 26.2183 14.6071 26.1458 14.6168 26.0742L14.607 20.918Z" fill="#FEE500"/>
<path d="M19.5985 19.9091C19.6416 19.7478 19.7429 19.6081 19.8828 19.517C20.0319 19.4325 20.2018 19.3917 20.3729 19.3993H20.7454C20.9271 19.3928 21.107 19.437 21.265 19.5268C21.4324 19.6394 21.5514 19.8108 21.5983 20.0071L23.5588 25.5456C23.6096 25.6901 23.6522 25.8375 23.6863 25.9868C23.6896 26.0489 23.6896 26.111 23.6863 26.173C23.6896 26.2686 23.672 26.3637 23.6347 26.4517C23.5975 26.5398 23.5415 26.6186 23.4706 26.6828C23.4019 26.7532 23.3195 26.8087 23.2284 26.8458C23.1373 26.8829 23.0396 26.9008 22.9412 26.8984C22.79 26.9135 22.6382 26.8772 22.5102 26.7954C22.3821 26.7136 22.2853 26.5911 22.2354 26.4475L21.8237 25.2418H19.2456L18.8339 26.4475C18.7852 26.5939 18.6873 26.7188 18.5568 26.801C18.4263 26.8832 18.2714 26.9177 18.1183 26.8984C17.9526 26.9028 17.7902 26.8509 17.6576 26.7514C17.5284 26.6486 17.4412 26.5023 17.4125 26.3397C17.4073 26.2843 17.4073 26.2285 17.4125 26.173C17.3957 26.0757 17.3957 25.9763 17.4125 25.879C17.4125 25.7712 17.4811 25.6535 17.5204 25.5456L19.5985 19.9091ZM20.5788 21.1933L19.6475 24.1341H21.5002L20.5788 21.1933Z" fill="#FEE500"/>
<path d="M24.3007 20.2228C24.2907 20.0028 24.3682 19.7878 24.5163 19.6248C24.5916 19.5489 24.682 19.4895 24.7816 19.4507C24.8812 19.4119 24.9879 19.3943 25.0947 19.3993C25.2783 19.3971 25.4575 19.4557 25.6044 19.5659C25.7406 19.6809 25.831 19.8409 25.8593 20.0168C25.8689 20.0851 25.8689 20.1545 25.8593 20.2228V25.379H28.555C28.7419 25.3765 28.9255 25.4275 29.0844 25.5259C29.1557 25.5699 29.2171 25.6285 29.2643 25.6978C29.3116 25.767 29.3438 25.8454 29.3588 25.9279C29.3588 25.9279 29.3588 26.0259 29.3588 26.0749C29.3635 26.1726 29.3446 26.2698 29.3036 26.3585C29.2626 26.4473 29.2009 26.5249 29.1236 26.5847C28.9527 26.7085 28.7464 26.7737 28.5354 26.7709H25.2221C25.0111 26.7845 24.8013 26.7295 24.6241 26.6141C24.4657 26.4956 24.36 26.3196 24.3301 26.124C24.3229 26.0163 24.3229 25.9082 24.3301 25.8004L24.3007 20.2228Z" fill="#FEE500"/>
<path d="M29.966 20.224C29.9601 20.0047 30.0371 19.7912 30.1816 19.6261C30.3286 19.4926 30.517 19.4137 30.7152 19.403C30.9134 19.3923 31.1093 19.4503 31.2697 19.5672C31.4089 19.6812 31.5027 19.841 31.5344 20.0181C31.5393 20.0866 31.5393 20.1555 31.5344 20.224V22.6256L34.0145 19.7632C34.11 19.6656 34.2115 19.574 34.3184 19.4888C34.4191 19.4289 34.5345 19.3982 34.6517 19.4005C34.823 19.3996 34.9905 19.4509 35.132 19.5476C35.1986 19.5925 35.2556 19.6504 35.2994 19.7177C35.3431 19.7851 35.3729 19.8606 35.3869 19.9397C35.3908 19.9591 35.3908 19.9792 35.3869 19.9986C35.3821 20.0212 35.3821 20.0445 35.3869 20.0671C35.3865 20.1703 35.3595 20.2717 35.3084 20.3613C35.2564 20.4562 35.194 20.5448 35.1222 20.6258L33.4949 22.41L35.4555 25.4488V25.5468C35.5573 25.6873 35.6366 25.8428 35.6908 26.0076V26.0566C35.7021 26.1701 35.6857 26.2848 35.643 26.3907C35.6004 26.4965 35.5326 26.5904 35.4457 26.6643C35.2822 26.7879 35.0821 26.8535 34.8771 26.8507C34.7409 26.8563 34.6057 26.8257 34.485 26.7623C34.3545 26.6748 34.2469 26.5571 34.1713 26.4193L32.348 23.4785L31.4756 24.3902V26.0271C31.4815 26.2465 31.4045 26.46 31.2599 26.6251C31.1825 26.7008 31.0903 26.7599 30.9892 26.7987C30.888 26.8375 30.78 26.8552 30.6718 26.8507C30.4909 26.8544 30.3143 26.7955 30.1718 26.684C30.0334 26.5736 29.9394 26.417 29.9072 26.2429C29.8975 26.1713 29.8975 26.0987 29.9072 26.0271L29.966 20.224Z" fill="#FEE500"/>
</svg>
